<svg xmlns="http://www.w3.org/2000/svg" width="1600" height="1000" viewBox="0 0 1600 1000" role="img" aria-labelledby="title desc">
  <title id="title">06_executive_architecture.svg</title>
  <desc id="desc">Editable vector organizational infographic for ByteLite LLC with consumer products and private deterministic research branches.</desc>
  <defs>
    <style>
      .title { font: 700 42px Arial, Helvetica, sans-serif; letter-spacing: 0.5px; }
      .branch { font: 700 28px Arial, Helvetica, sans-serif; letter-spacing: 0.3px; }
      .item { font: 600 23px Arial, Helvetica, sans-serif; }
      .tag { font: 700 14px Arial, Helvetica, sans-serif; letter-spacing: 0.4px; }
      .small { font: 600 16px Arial, Helvetica, sans-serif; }
      .line { fill: none; stroke-linecap: round; stroke-linejoin: round; }
    </style>
  </defs>

  <g id="parent-organization">
    <rect x="575" y="35" width="450" height="90" rx="22" fill="#F5F3EE" stroke="#B99A55" stroke-width="4"/>
    <line x1="603" y1="111" x2="997" y2="111" stroke="#B99A55" stroke-width="3"/>
    <text x="800.0" y="93" text-anchor="middle" class="title" fill="#111318">ByteLite LLC</text>
  </g>
  <path d="M800 125 V175 H400 V220 M800 175 H1200 V220" class="line" stroke="#B99A55" stroke-width="4"/>

  <g id="consumer-branch-header">
    <rect x="105" y="220" width="590" height="66" rx="18" fill="#FCE1EF" stroke="#EC2A88" stroke-width="3"/>
    <text x="400.0" y="263" text-anchor="middle" class="branch" fill="#B91873">Consumer Products</text>
  </g>
  <g id="research-branch-header">
    <rect x="905" y="220" width="590" height="66" rx="18" fill="#DCEAF5" stroke="#356B9A" stroke-width="3"/>
    <text x="1200.0" y="263" text-anchor="middle" class="branch" fill="#10263F">Private Deterministic Research</text>
  </g><rect x="105" y="345" width="590" height="138" rx="8" fill="#FFFFFF" stroke="#7B8794" stroke-width="1.5"/><rect x="105" y="345" width="12" height="138" fill="#EC2A88"/><text x="145" y="399" class="item" fill="#111318">Cordel Play</text><g class="status-tag">
      <rect x="145" y="427" width="92" height="28" rx="14" fill="#FCE1EF" stroke="#B91873" stroke-width="1.5"/>
      <text x="191.0" y="446" text-anchor="middle" class="tag" fill="#B91873">Pre-launch</text>
    </g><rect x="105" y="523" width="590" height="138" rx="8" fill="#FFFFFF" stroke="#7B8794" stroke-width="1.5"/><rect x="105" y="523" width="12" height="138" fill="#EC2A88"/><text x="145" y="577" class="item" fill="#111318">Cordel Connect</text><g class="status-tag">
      <rect x="145" y="605" width="74" height="28" rx="14" fill="#FCE1EF" stroke="#B91873" stroke-width="1.5"/>
      <text x="182.0" y="624" text-anchor="middle" class="tag" fill="#B91873">Planned</text>
    </g><rect x="105" y="701" width="590" height="138" rx="8" fill="#FFFFFF" stroke="#7B8794" stroke-width="1.5"/><rect x="105" y="701" width="12" height="138" fill="#EC2A88"/><text x="145" y="755" class="item" fill="#111318">Restaurant Program</text><g class="status-tag">
      <rect x="145" y="783" width="74" height="28" rx="14" fill="#FCE1EF" stroke="#B91873" stroke-width="1.5"/>
      <text x="182.0" y="802" text-anchor="middle" class="tag" fill="#B91873">Planned</text>
    </g><rect x="905" y="325" width="590" height="70" rx="8" fill="#FFFFFF" stroke="#7B8794" stroke-width="1.5"/><rect x="905" y="325" width="12" height="70" fill="#356B9A"/><text x="945" y="368" class="item" fill="#10263F">ByteLite Research</text><g class="status-tag">
      <rect x="1323" y="346" width="132" height="28" rx="14" fill="#D7EFED" stroke="#2E8C89" stroke-width="1.5"/>
      <text x="1389.0" y="365" text-anchor="middle" class="tag" fill="#10263F">Private research</text>
    </g><rect x="905" y="411" width="590" height="70" rx="8" fill="#FFFFFF" stroke="#7B8794" stroke-width="1.5"/><rect x="905" y="411" width="12" height="70" fill="#356B9A"/><text x="945" y="454" class="item" fill="#10263F">ByteSight</text><g class="status-tag">
      <rect x="1359" y="432" width="96" height="28" rx="14" fill="#D7EFED" stroke="#2E8C89" stroke-width="1.5"/>
      <text x="1407.0" y="451" text-anchor="middle" class="tag" fill="#10263F">Private test</text>
    </g><rect x="905" y="497" width="590" height="70" rx="8" fill="#FFFFFF" stroke="#7B8794" stroke-width="1.5"/><rect x="905" y="497" width="12" height="70" fill="#356B9A"/><text x="945" y="540" class="item" fill="#10263F">ByteFlow</text><g class="status-tag">
      <rect x="1323" y="518" width="132" height="28" rx="14" fill="#D7EFED" stroke="#2E8C89" stroke-width="1.5"/>
      <text x="1389.0" y="537" text-anchor="middle" class="tag" fill="#10263F">Private research</text>
    </g><rect x="905" y="583" width="590" height="70" rx="8" fill="#FFFFFF" stroke="#7B8794" stroke-width="1.5"/><rect x="905" y="583" width="12" height="70" fill="#356B9A"/><text x="945" y="626" class="item" fill="#10263F">ByteCost</text><g class="status-tag">
      <rect x="1381" y="604" width="74" height="28" rx="14" fill="#D7EFED" stroke="#2E8C89" stroke-width="1.5"/>
      <text x="1418.0" y="623" text-anchor="middle" class="tag" fill="#10263F">Planned</text>
    </g><rect x="905" y="669" width="590" height="70" rx="8" fill="#FFFFFF" stroke="#7B8794" stroke-width="1.5"/><rect x="905" y="669" width="12" height="70" fill="#356B9A"/><text x="945" y="712" class="item" fill="#10263F">Deep Kore</text><g class="status-tag">
      <rect x="1323" y="690" width="132" height="28" rx="14" fill="#D7EFED" stroke="#2E8C89" stroke-width="1.5"/>
      <text x="1389.0" y="709" text-anchor="middle" class="tag" fill="#10263F">Private research</text>
    </g><rect x="905" y="755" width="590" height="70" rx="8" fill="#FFFFFF" stroke="#7B8794" stroke-width="1.5"/><rect x="905" y="755" width="12" height="70" fill="#356B9A"/><text x="945" y="798" class="item" fill="#10263F">AIya</text><g class="status-tag">
      <rect x="1359" y="776" width="96" height="28" rx="14" fill="#D7EFED" stroke="#2E8C89" stroke-width="1.5"/>
      <text x="1407.0" y="795" text-anchor="middle" class="tag" fill="#10263F">Private test</text>
    </g><rect x="905" y="841" width="590" height="70" rx="8" fill="#FFFFFF" stroke="#7B8794" stroke-width="1.5"/><rect x="905" y="841" width="12" height="70" fill="#356B9A"/><text x="945" y="884" class="item" fill="#10263F">Governance Layer</text><g class="status-tag">
      <rect x="1323" y="862" width="132" height="28" rx="14" fill="#D7EFED" stroke="#2E8C89" stroke-width="1.5"/>
      <text x="1389.0" y="881" text-anchor="middle" class="tag" fill="#10263F">Private research</text>
    </g>
</svg>
