<svg xmlns="http://www.w3.org/2000/svg" viewBox="0 0 24 24" width="24" height="24" fill="currentColor" stroke="currentColor" stroke-width="1.4" stroke-linecap="round" stroke-linejoin="round">
<path d="M8.2 20.2H6.6a2.6 2.6 0 0 1-2.6-2.6v-5a2 2 0 0 1 2-2h1.6c.5 0 1-.2 1.4-.6l2-2.1a2.5 2.5 0 0 1 4.2 1.8V11"/>
<path d="M8.2 20.2h7.3c1.2 0 2.2-.8 2.5-1.9l1.2-4.7a2.1 2.1 0 0 0-2-2.6H13" opacity="0.18"/>
<path d="M8.2 10.6v9.6" fill="none"/>
<path d="M17.6 5.1c.7-.7 1.8-.7 2.4 0 .6.6.6 1.7 0 2.3l-2.7 2.4-2.7-2.4c-.6-.6-.6-1.7 0-2.3.6-.7 1.7-.7 2.4 0 .1.1.2.3.3.4.1-.1.2-.3.3-.4z"/>
</svg>